<svg width="645" height="1033" viewBox="0 0 645 1033" fill="none" xmlns="http://www.w3.org/2000/svg">
<path d="M3.5878 508.778L3.58446 508.784C0.805183 513.53 0.805183 519.415 3.58445 524.162L3.58782 524.168L231.551 917.516C237.515 927.767 252.382 927.767 258.346 917.516L486.309 524.168L486.312 524.162C489.091 519.415 489.091 513.53 486.312 508.784L486.309 508.778L258.346 115.43C252.382 105.18 237.517 105.179 231.552 115.427L3.5878 508.778ZM3.5878 508.778L231.551 115.43L3.5878 508.778ZM571.654 693.445L571.655 693.445C584.14 677.896 607.865 677.896 620.35 693.445L620.351 693.445L851.532 980.975L852.701 980.035L851.532 980.976C867.91 1001.33 853.362 1031.5 827.184 1031.5H364.822C338.643 1031.5 324.095 1001.33 340.473 980.976L339.304 980.035L340.473 980.975L571.654 693.445ZM705.691 508.778L933.654 115.43C939.618 105.179 954.485 105.179 960.449 115.43L1188.41 508.778L1188.42 508.784C1191.19 513.53 1191.19 519.415 1188.42 524.162L1188.41 524.168L960.449 917.516C954.485 927.767 939.618 927.767 933.654 917.516L705.691 524.168L705.688 524.162C702.909 519.415 702.909 513.53 705.688 508.784L705.691 508.778ZM620.351 339.555L620.35 339.555C607.865 355.104 584.14 355.104 571.655 339.555L571.654 339.555L340.473 52.0247L340.473 52.0244C324.095 31.6665 338.643 1.5 364.822 1.5H827.184C853.362 1.5 867.91 31.6665 851.532 52.0244L852.701 52.9646L851.532 52.0247L620.351 339.555Z" stroke="url(#paint0_linear_127_305)" stroke-opacity="0.8" stroke-width="3"/>
<defs>
<linearGradient id="paint0_linear_127_305" x1="1287.79" y1="1154.17" x2="-91.0641" y2="-99.1038" gradientUnits="userSpaceOnUse">
<stop stop-opacity="0.4"/>
<stop offset="0.356062" stop-opacity="0.14"/>
<stop offset="0.555666" stop-opacity="0.14"/>
<stop offset="1" stop-opacity="0.4"/>
</linearGradient>
</defs>
</svg>
