<svg width="658" height="551" viewBox="0 0 658 551" fill="none" xmlns="http://www.w3.org/2000/svg">
<g clip-path="url(#clip0_326_116)">
<path d="M309.064 550.142C452.584 550.142 568.929 544.192 568.929 536.853C568.929 529.514 452.584 523.564 309.064 523.564C165.545 523.564 49.1997 529.514 49.1997 536.853C49.1997 544.192 165.545 550.142 309.064 550.142Z" fill="#F2F2F2"/>
<path d="M460.889 127.679H457.936V46.8066C457.936 34.3927 453.005 22.4873 444.227 13.7094C435.449 4.93142 423.544 1.37058e-05 411.13 0H239.792C227.378 -2.34955e-05 215.472 4.93134 206.694 13.7092C197.916 22.4872 192.985 34.3926 192.985 46.8064V490.477C192.985 502.891 197.916 514.796 206.694 523.574C215.472 532.352 227.377 537.284 239.791 537.284H411.13C423.544 537.284 435.449 532.352 444.227 523.574C453.005 514.797 457.936 502.891 457.936 490.477V185.245H460.888L460.889 127.679Z" fill="#3F3D56"/>
<path d="M447.974 47.1332V490.151C447.974 499.422 444.291 508.313 437.735 514.869C431.18 521.424 422.289 525.107 413.018 525.107H240.857C231.586 525.107 222.695 521.424 216.14 514.869C209.584 508.313 205.901 499.422 205.901 490.151V47.1332C205.901 37.8623 209.584 28.9712 216.14 22.4156C222.695 15.8601 231.586 12.1772 240.857 12.177H261.742C260.716 14.6988 260.325 17.4342 260.604 20.1426C260.883 22.8509 261.824 25.4492 263.343 27.7089C264.861 29.9685 266.912 31.8203 269.315 33.1014C271.717 34.3824 274.398 35.0534 277.12 35.0554H375.278C378.001 35.0534 380.681 34.3824 383.084 33.1013C385.486 31.8203 387.537 29.9685 389.056 27.7088C390.575 25.4492 391.515 22.8509 391.794 20.1426C392.073 17.4342 391.682 14.6989 390.656 12.177H413.018C422.289 12.1772 431.18 15.8601 437.735 22.4156C444.291 28.9712 447.974 37.8623 447.974 47.1332Z" fill="white"/>
<path d="M392.512 238.16C391.368 238.758 390.204 239.324 389.02 239.858C387.942 240.346 386.847 240.803 385.735 241.231C385.329 241.386 384.916 241.542 384.502 241.697C381.233 242.882 377.876 243.808 374.462 244.465C372.771 244.797 371.058 245.058 369.324 245.248C367.891 245.41 366.444 245.526 364.983 245.595C363.942 245.646 362.901 245.668 361.852 245.668C357.701 245.67 353.558 245.282 349.479 244.509C348.416 244.317 347.375 244.088 346.334 243.837C341.299 242.631 336.425 240.832 331.813 238.478C331.399 238.271 330.986 238.05 330.573 237.835C329.96 237.511 329.362 237.171 328.764 236.817C329.052 236.418 329.362 236.027 329.679 235.643C333.134 231.362 337.452 227.857 342.351 225.356C347.251 222.856 352.623 221.416 358.117 221.13C363.61 220.844 369.102 221.72 374.235 223.699C379.368 225.678 384.026 228.716 387.905 232.616C389.252 233.967 390.5 235.413 391.641 236.942C391.943 237.341 392.231 237.747 392.512 238.16Z" fill="#82337E"/>
<path d="M363.326 205.731C381.229 205.731 395.742 191.218 395.742 173.315C395.742 155.412 381.229 140.898 363.326 140.898C345.423 140.898 330.909 155.412 330.909 173.315C330.909 191.218 345.423 205.731 363.326 205.731Z" fill="#2F2E41"/>
<path d="M371.947 205.777C383.639 199.386 387.936 184.726 381.545 173.034C375.153 161.342 360.494 157.045 348.802 163.437C337.11 169.828 332.813 184.487 339.205 196.179C345.596 207.871 360.255 212.168 371.947 205.777Z" fill="#A0616A"/>
<path d="M385.726 169.431C380.213 173.231 373.669 175.253 366.973 175.227C369.362 176.883 372.081 178.001 374.943 178.505C366.041 180.415 356.84 180.467 347.916 178.657C345.932 178.339 344.019 177.682 342.258 176.714C341.381 176.224 340.617 175.555 340.015 174.75C339.413 173.946 338.988 173.023 338.766 172.043C338.173 168.656 340.812 165.578 343.556 163.504C347.755 160.377 352.598 158.222 357.733 157.196C362.868 156.17 368.166 156.298 373.246 157.571C376.562 158.429 379.885 159.877 382.039 162.54C384.193 165.204 384.831 169.31 382.779 172.053L385.726 169.431Z" fill="#2F2E41"/>
<path d="M361.852 112.783C347.362 112.781 333.268 117.516 321.719 126.268C310.171 135.02 301.8 147.307 297.883 161.258C293.966 175.209 294.718 190.058 300.024 203.542C305.33 217.026 314.899 228.405 327.273 235.946L327.701 236.197C328.055 236.411 328.41 236.617 328.764 236.817C329.362 237.171 329.96 237.511 330.573 237.835C330.986 238.05 331.399 238.271 331.813 238.478C336.425 240.832 341.299 242.631 346.334 243.837C347.375 244.088 348.416 244.317 349.479 244.509C353.558 245.282 357.701 245.67 361.852 245.668C362.901 245.668 363.942 245.646 364.983 245.594C366.444 245.528 367.891 245.412 369.324 245.247C371.059 245.056 372.771 244.795 374.462 244.465C377.876 243.808 381.233 242.882 384.502 241.697C384.916 241.541 385.329 241.386 385.735 241.231C386.849 240.803 387.945 240.346 389.02 239.858C390.201 239.327 391.365 238.761 392.512 238.16C404.005 232.141 413.504 222.917 419.857 211.605C419.886 211.546 419.923 211.487 419.953 211.428C423.342 205.346 425.747 198.765 427.077 191.931C428.945 182.31 428.662 172.394 426.249 162.895C423.835 153.396 419.352 144.548 413.119 136.984C406.886 129.421 399.058 123.329 390.195 119.145C381.332 114.961 371.653 112.789 361.852 112.783ZM418.742 210.564C418.683 210.668 418.631 210.771 418.572 210.867C412.346 222.012 402.981 231.079 391.641 236.942C390.511 237.533 389.362 238.086 388.193 238.603C387.226 239.039 386.237 239.452 385.24 239.836C384.819 239.999 384.391 240.161 383.963 240.309C381.139 241.34 378.245 242.169 375.303 242.789C373.121 243.254 370.915 243.601 368.696 243.83C367.33 243.978 365.942 244.081 364.547 244.133C363.654 244.17 362.753 244.192 361.852 244.192C357.835 244.197 353.826 243.823 349.878 243.077C347.477 242.634 345.103 242.052 342.768 241.335C339.213 240.236 335.758 238.836 332.44 237.149C332.057 236.95 331.673 236.75 331.296 236.544C330.757 236.256 330.211 235.96 329.679 235.643C329.281 235.421 328.882 235.185 328.491 234.949C328.262 234.816 328.033 234.676 327.804 234.535C316.955 227.873 308.301 218.172 302.915 206.636C297.53 195.1 295.649 182.236 297.508 169.641C299.366 157.046 304.882 145.274 313.37 135.785C321.858 126.296 332.945 119.508 345.256 116.263C357.567 113.018 370.56 113.458 382.622 117.53C394.685 121.602 405.287 129.126 413.112 139.168C420.938 149.21 425.643 161.329 426.644 174.021C427.645 186.713 424.897 199.42 418.742 210.564Z" fill="#3F3D56"/>
<path d="M346.91 141.346C346.561 137.678 342.068 135.42 338.554 136.528C335.04 137.636 332.734 141.174 332.036 144.791C331.701 146.315 331.669 147.89 331.944 149.425C332.218 150.961 332.793 152.428 333.635 153.741C335.411 156.297 338.675 157.892 341.719 157.243C345.194 156.502 347.601 153.109 348.29 149.623C348.979 146.138 348.295 142.544 347.612 139.057L346.91 141.346Z" fill="#2F2E41"/>
<path d="M396.359 146.585C396.01 142.917 391.517 140.659 388.004 141.767C384.49 142.875 382.183 146.413 381.486 150.031C381.15 151.554 381.119 153.129 381.393 154.665C381.668 156.2 382.242 157.667 383.085 158.98C384.861 161.536 388.124 163.131 391.168 162.482C394.643 161.742 397.051 158.348 397.74 154.863C398.429 151.377 397.745 147.783 397.062 144.297L396.359 146.585Z" fill="#2F2E41"/>
<path d="M247.007 205.78C246.547 205.779 246.093 205.683 245.673 205.497C245.252 205.311 244.875 205.039 244.566 204.699L207.932 164.735C207.517 164.282 207.012 163.921 206.449 163.673C205.887 163.426 205.279 163.298 204.665 163.297H11.0806C8.14287 163.294 5.32639 162.125 3.24908 160.048C1.17177 157.971 0.00329835 155.154 0 152.216V82.4053C0.0032964 79.4676 1.17177 76.6511 3.24908 74.5738C5.32639 72.4965 8.14287 71.328 11.0806 71.3247H261.883C264.821 71.328 267.638 72.4965 269.715 74.5738C271.792 76.6511 272.961 79.4676 272.964 82.4053V152.216C272.961 155.154 271.792 157.971 269.715 160.048C267.638 162.125 264.821 163.294 261.883 163.297H254.773C253.598 163.298 252.471 163.766 251.64 164.597C250.809 165.428 250.341 166.555 250.34 167.73V202.452C250.343 203.123 250.142 203.778 249.763 204.331C249.385 204.885 248.847 205.31 248.221 205.55C247.834 205.701 247.423 205.779 247.007 205.78Z" fill="white"/>
<path d="M247.007 205.78C246.547 205.779 246.093 205.683 245.673 205.497C245.252 205.311 244.875 205.039 244.566 204.699L207.932 164.735C207.517 164.282 207.012 163.921 206.449 163.673C205.887 163.426 205.279 163.298 204.665 163.297H11.0806C8.14287 163.294 5.32639 162.125 3.24908 160.048C1.17177 157.971 0.00329835 155.154 0 152.216V82.4053C0.0032964 79.4676 1.17177 76.6511 3.24908 74.5738C5.32639 72.4965 8.14287 71.328 11.0806 71.3247H261.883C264.821 71.328 267.638 72.4965 269.715 74.5738C271.792 76.6511 272.961 79.4676 272.964 82.4053V152.216C272.961 155.154 271.792 157.971 269.715 160.048C267.638 162.125 264.821 163.294 261.883 163.297H254.773C253.598 163.298 252.471 163.766 251.64 164.597C250.809 165.428 250.341 166.555 250.34 167.73V202.452C250.343 203.123 250.142 203.778 249.763 204.331C249.385 204.885 248.847 205.31 248.221 205.55C247.834 205.701 247.423 205.779 247.007 205.78ZM11.0806 72.8012C8.53434 72.8041 6.09315 73.8169 4.29265 75.6174C2.49215 77.4179 1.47938 79.859 1.4765 82.4053V152.216C1.47938 154.763 2.49217 157.204 4.29267 159.004C6.09316 160.805 8.53434 161.818 11.0806 161.82H204.665C205.484 161.821 206.294 161.992 207.044 162.322C207.793 162.652 208.467 163.134 209.021 163.737L245.654 203.701C245.906 203.975 246.234 204.167 246.597 204.252C246.959 204.336 247.339 204.309 247.686 204.174C248.033 204.039 248.331 203.803 248.541 203.495C248.751 203.188 248.864 202.825 248.864 202.452V167.73C248.865 166.163 249.488 164.661 250.596 163.553C251.704 162.445 253.206 161.822 254.773 161.82H261.883C264.43 161.818 266.871 160.805 268.671 159.004C270.472 157.204 271.485 154.763 271.487 152.216V82.4053C271.485 79.859 270.472 77.4179 268.671 75.6174C266.871 73.8169 264.43 72.8041 261.883 72.8012H11.0806Z" fill="#3F3D56"/>
<path d="M27.1795 102.12C32.5344 102.12 36.8755 97.7792 36.8755 92.4243C36.8755 87.0693 32.5344 82.7283 27.1795 82.7283C21.8245 82.7283 17.4835 87.0693 17.4835 92.4243C17.4835 97.7792 21.8245 102.12 27.1795 102.12Z" fill="#82337E"/>
<path d="M250.572 146.076H22.3926C21.713 146.076 21.0399 145.943 20.4118 145.684C19.7837 145.424 19.2129 145.043 18.732 144.563C18.2512 144.083 17.8697 143.513 17.6094 142.885C17.3492 142.257 17.2152 141.584 17.2152 140.904C17.2152 140.225 17.3492 139.552 17.6094 138.924C17.8697 138.296 18.2512 137.726 18.732 137.246C19.2129 136.765 19.7837 136.385 20.4118 136.125C21.0399 135.866 21.713 135.732 22.3926 135.733H250.572C251.942 135.735 253.256 136.28 254.224 137.25C255.193 138.22 255.737 139.534 255.737 140.904C255.737 142.275 255.193 143.589 254.224 144.559C253.256 145.528 251.942 146.074 250.572 146.076Z" fill="#E6E6E6"/>
<path d="M176.235 124.098H22.3926C21.713 124.099 21.0399 123.965 20.4118 123.706C19.7837 123.446 19.2129 123.066 18.732 122.585C18.2512 122.105 17.8697 121.535 17.6094 120.907C17.3492 120.279 17.2152 119.606 17.2152 118.927C17.2152 118.247 17.3492 117.574 17.6094 116.946C17.8697 116.318 18.2512 115.748 18.732 115.268C19.2129 114.788 19.7837 114.407 20.4118 114.147C21.0399 113.888 21.713 113.755 22.3926 113.755H176.235C177.607 113.755 178.922 114.3 179.892 115.27C180.862 116.24 181.407 117.555 181.407 118.927C181.407 120.298 180.862 121.613 179.892 122.583C178.922 123.553 177.607 124.098 176.235 124.098Z" fill="#E6E6E6"/>
<path d="M409.779 442.529C409.153 442.288 408.615 441.863 408.237 441.31C407.858 440.757 407.657 440.102 407.66 439.431V404.709C407.659 403.534 407.191 402.407 406.36 401.576C405.529 400.745 404.402 400.277 403.227 400.276H396.117C393.179 400.272 390.362 399.104 388.285 397.027C386.208 394.949 385.039 392.133 385.036 389.195V319.384C385.039 316.446 386.208 313.63 388.285 311.553C390.362 309.475 393.179 308.307 396.117 308.303H646.919C649.857 308.307 652.674 309.475 654.751 311.553C656.828 313.63 657.997 316.446 658 319.384V389.195C657.997 392.133 656.828 394.949 654.751 397.027C652.674 399.104 649.857 400.272 646.919 400.276H453.335C452.721 400.276 452.113 400.405 451.551 400.652C450.988 400.899 450.483 401.261 450.068 401.713L413.434 441.677C413.125 442.017 412.748 442.289 412.328 442.475C411.907 442.662 411.453 442.758 410.993 442.758C410.577 442.758 410.166 442.68 409.779 442.529Z" fill="white"/>
<path d="M409.779 442.529C409.153 442.288 408.615 441.863 408.237 441.31C407.858 440.757 407.657 440.102 407.66 439.431V404.709C407.659 403.534 407.191 402.407 406.36 401.576C405.529 400.745 404.402 400.277 403.227 400.276H396.117C393.179 400.272 390.362 399.104 388.285 397.027C386.208 394.949 385.039 392.133 385.036 389.195V319.384C385.039 316.446 386.208 313.63 388.285 311.553C390.362 309.475 393.179 308.307 396.117 308.303H646.919C649.857 308.307 652.674 309.475 654.751 311.553C656.828 313.63 657.997 316.446 658 319.384V389.195C657.997 392.133 656.828 394.949 654.751 397.027C652.674 399.104 649.857 400.272 646.919 400.276H453.335C452.721 400.276 452.113 400.405 451.551 400.652C450.988 400.899 450.483 401.261 450.068 401.713L413.434 441.677C413.125 442.017 412.748 442.289 412.328 442.475C411.907 442.662 411.453 442.758 410.993 442.758C410.577 442.758 410.166 442.68 409.779 442.529ZM396.117 309.78C393.57 309.783 391.129 310.796 389.329 312.596C387.528 314.397 386.515 316.838 386.512 319.384V389.195C386.515 391.741 387.528 394.183 389.329 395.983C391.129 397.784 393.57 398.796 396.117 398.799H403.227C404.794 398.801 406.296 399.424 407.404 400.532C408.512 401.64 409.135 403.142 409.136 404.709V439.431C409.137 439.803 409.249 440.167 409.459 440.474C409.669 440.781 409.967 441.018 410.314 441.153C410.661 441.288 411.041 441.315 411.403 441.23C411.766 441.146 412.094 440.954 412.346 440.68L448.979 400.715C449.533 400.112 450.207 399.631 450.956 399.301C451.706 398.971 452.516 398.8 453.335 398.799H646.919C649.466 398.796 651.907 397.784 653.707 395.983C655.508 394.183 656.521 391.741 656.523 389.195V319.384C656.521 316.838 655.508 314.397 653.707 312.596C651.907 310.796 649.466 309.783 646.919 309.78H396.117Z" fill="#3F3D56"/>
<path d="M331.606 464.147C321.321 470.733 309.405 474.324 297.194 474.518C284.982 474.712 272.958 471.502 262.469 465.247C264.314 461.812 266.652 458.665 269.408 455.908C273.662 451.634 278.838 448.393 284.539 446.432C290.241 444.471 296.316 443.843 302.298 444.597C308.28 445.35 314.01 447.465 319.047 450.779C324.084 454.092 328.294 458.516 331.355 463.711C331.436 463.851 331.525 463.999 331.606 464.147Z" fill="#82337E"/>
<path d="M294.151 428.843C312.173 428.843 326.783 414.233 326.783 396.211C326.783 378.189 312.173 363.579 294.151 363.579C276.129 363.579 261.519 378.189 261.519 396.211C261.519 414.233 276.129 428.843 294.151 428.843Z" fill="#2F2E41"/>
<path d="M318.432 419.228C324.866 407.458 320.541 392.701 308.771 386.267C297.001 379.834 282.244 384.159 275.811 395.929C269.377 407.698 273.702 422.455 285.472 428.889C297.242 435.323 311.998 430.997 318.432 419.228Z" fill="#FFB8B8"/>
<path d="M271.601 392.302C277.151 396.127 283.739 398.163 290.479 398.136C288.075 399.803 285.337 400.93 282.456 401.437C291.418 403.359 300.68 403.411 309.663 401.59C311.66 401.27 313.586 400.608 315.358 399.634C316.242 399.141 317.011 398.467 317.617 397.657C318.222 396.847 318.651 395.919 318.874 394.932C319.471 391.522 316.814 388.424 314.052 386.336C309.825 383.188 304.95 381.019 299.781 379.986C294.612 378.953 289.278 379.082 284.165 380.364C280.826 381.227 277.482 382.685 275.313 385.366C273.145 388.047 272.503 392.181 274.569 394.941L271.601 392.302Z" fill="#2F2E41"/>
<path d="M296.148 475.265C280.167 475.26 264.723 469.493 252.65 459.022C240.576 448.551 232.683 434.078 230.417 418.258C228.152 402.438 231.666 386.332 240.316 372.894C248.965 359.455 262.17 349.586 277.507 345.096C292.845 340.606 309.287 341.796 323.818 348.449C338.349 355.101 349.994 366.77 356.618 381.314C363.241 395.858 364.398 412.303 359.878 427.632C355.357 442.96 345.461 456.145 332.005 464.768C321.305 471.629 308.859 475.272 296.148 475.265ZM296.148 343.856C283.297 343.855 270.735 347.664 260.049 354.803C249.363 361.942 241.035 372.089 236.116 383.961C231.198 395.834 229.911 408.898 232.418 421.502C234.924 434.106 241.113 445.683 250.199 454.77C259.286 463.857 270.864 470.045 283.468 472.552C296.072 475.059 309.136 473.772 321.008 468.853C332.881 463.935 343.028 455.606 350.167 444.921C357.306 434.235 361.115 421.673 361.114 408.822C361.095 391.598 354.244 375.085 342.064 362.905C329.885 350.726 313.372 343.875 296.148 343.856Z" fill="#3F3D56"/>
<path d="M416.238 338.361C421.593 338.361 425.934 334.02 425.934 328.665C425.934 323.31 421.593 318.969 416.238 318.969C410.883 318.969 406.542 323.31 406.542 328.665C406.542 334.02 410.883 338.361 416.238 338.361Z" fill="#82337E"/>
<path d="M639.63 382.316H411.451C410.772 382.317 410.099 382.183 409.47 381.924C408.842 381.664 408.272 381.284 407.791 380.803C407.31 380.323 406.928 379.753 406.668 379.125C406.408 378.497 406.274 377.824 406.274 377.145C406.274 376.465 406.408 375.792 406.668 375.164C406.928 374.536 407.31 373.966 407.791 373.486C408.272 373.006 408.842 372.625 409.47 372.365C410.099 372.106 410.772 371.973 411.451 371.973H639.63C641.001 371.973 642.317 372.518 643.286 373.488C644.256 374.458 644.801 375.773 644.801 377.145C644.801 378.516 644.256 379.831 643.286 380.801C642.317 381.771 641.001 382.316 639.63 382.316Z" fill="#E6E6E6"/>
<path d="M565.294 360.339H411.451C410.772 360.339 410.099 360.206 409.47 359.947C408.842 359.687 408.272 359.306 407.791 358.826C407.31 358.346 406.928 357.775 406.668 357.148C406.408 356.52 406.274 355.847 406.274 355.167C406.274 354.488 406.408 353.815 406.668 353.187C406.928 352.559 407.31 351.989 407.791 351.509C408.272 351.028 408.842 350.647 409.47 350.388C410.099 350.128 410.772 349.995 411.451 349.996H565.294C566.665 349.998 567.978 350.543 568.947 351.513C569.915 352.482 570.459 353.797 570.459 355.167C570.459 356.538 569.915 357.852 568.947 358.822C567.978 359.791 566.665 360.337 565.294 360.339Z" fill="#E6E6E6"/>
<path d="M409.467 449.138C419.457 449.138 427.557 448.239 427.557 447.13C427.557 446.021 419.457 445.123 409.467 445.123C399.476 445.123 391.376 446.021 391.376 447.13C391.376 448.239 399.476 449.138 409.467 449.138Z" fill="#F2F2F2"/>
<path d="M247.789 212.898C257.78 212.898 265.879 211.999 265.879 210.89C265.879 209.781 257.78 208.882 247.789 208.882C237.798 208.882 229.699 209.781 229.699 210.89C229.699 211.999 237.798 212.898 247.789 212.898Z" fill="#F2F2F2"/>
</g>
<defs>
<clipPath id="clip0_326_116">
<rect width="658" height="550.141" fill="white"/>
</clipPath>
</defs>
</svg>
